# xmcd
#
# Track frame offsets:
#	150
#	13353
#	25990
#	40872
#	54110
#	74961
#	84563
#	101253
#	117791
#	131795
#	155946
#	180357
#	195996
#	211223
#	224958
#
# Disc length: 3195 seconds
#
# Revision: 1
# Processed by: cddbd v1.5.2PL0 Copyright (c) Steve Scherf et al.
# Submitted via: audiograbber 1.83.01
#
DISCID=dc0c790f
DTITLE=Donovan - Donovan - The Album [CD 1)
DYEAR=2017
DGENRE=Blues
TTITLE0=Catch The Wind
TTITLE1=Colours
TTITLE2=The Ballad Of A Crystal Man
TTITLE3=Belated Forgiveness Plea
TTITLE4=Boy For Every Girl
TTITLE5=Oh Deed I Do
TTITLE6=The War Drags On
TTITLE7=To Try For The Sun
TTITLE8=Lady Of The Stars
TTITLE9=No Man's Land
TTITLE10=Season Of The Witch
TTITLE11=Shipwreck
TTITLE12=Only To Be Expected
TTITLE13=Every Reason
TTITLE14=Till I See You Again
EXTD=
EXTT0=
EXTT1=
EXTT2=
EXTT3=
EXTT4=
EXTT5=
EXTT6=
EXTT7=
EXTT8=
EXTT9=
EXTT10=
EXTT11=
EXTT12=
EXTT13=
EXTT14=
PLAYORDER=
